<mxfile host="Electron" agent="Mozilla/5.0 (Windows NT 10.0; Win64; x64) AppleWebKit/537.36 (KHTML, like Gecko) draw.io/24.7.8 Chrome/128.0.6613.36 Electron/32.0.1 Safari/537.36" version="24.7.8">
  <diagram name="Seite-1" id="o-FAQh9AHSQdGiTv21FT">
    <mxGraphModel dx="648" dy="384" grid="1" gridSize="10" guides="1" tooltips="1" connect="1" arrows="1" fold="1" page="1" pageScale="1" pageWidth="827" pageHeight="1169" math="0" shadow="0">
      <root>
        <mxCell id="0" />
        <mxCell id="1" parent="0" />
        <mxCell id="dUGXrfB6HH9C9mqlkpc8-4" style="edgeStyle=orthogonalEdgeStyle;rounded=0;orthogonalLoop=1;jettySize=auto;html=1;" edge="1" parent="1" source="dUGXrfB6HH9C9mqlkpc8-1" target="dUGXrfB6HH9C9mqlkpc8-2">
          <mxGeometry relative="1" as="geometry" />
        </mxCell>
        <mxCell id="dUGXrfB6HH9C9mqlkpc8-6" value="Ab 0°C" style="edgeLabel;html=1;align=center;verticalAlign=middle;resizable=0;points=[];" vertex="1" connectable="0" parent="dUGXrfB6HH9C9mqlkpc8-4">
          <mxGeometry x="-0.1191" y="1" relative="1" as="geometry">
            <mxPoint as="offset" />
          </mxGeometry>
        </mxCell>
        <mxCell id="dUGXrfB6HH9C9mqlkpc8-5" style="edgeStyle=orthogonalEdgeStyle;rounded=0;orthogonalLoop=1;jettySize=auto;html=1;" edge="1" parent="1" source="dUGXrfB6HH9C9mqlkpc8-1" target="dUGXrfB6HH9C9mqlkpc8-3">
          <mxGeometry relative="1" as="geometry" />
        </mxCell>
        <mxCell id="dUGXrfB6HH9C9mqlkpc8-7" value="Ab 100°C" style="edgeLabel;html=1;align=center;verticalAlign=middle;resizable=0;points=[];" vertex="1" connectable="0" parent="dUGXrfB6HH9C9mqlkpc8-5">
          <mxGeometry x="-0.1256" relative="1" as="geometry">
            <mxPoint as="offset" />
          </mxGeometry>
        </mxCell>
        <mxCell id="dUGXrfB6HH9C9mqlkpc8-9" style="edgeStyle=orthogonalEdgeStyle;rounded=0;orthogonalLoop=1;jettySize=auto;html=1;" edge="1" parent="1" source="dUGXrfB6HH9C9mqlkpc8-1" target="dUGXrfB6HH9C9mqlkpc8-8">
          <mxGeometry relative="1" as="geometry" />
        </mxCell>
        <mxCell id="dUGXrfB6HH9C9mqlkpc8-10" value="Bei Berürung mit Erde" style="edgeLabel;html=1;align=center;verticalAlign=middle;resizable=0;points=[];" vertex="1" connectable="0" parent="dUGXrfB6HH9C9mqlkpc8-9">
          <mxGeometry x="-0.0594" y="1" relative="1" as="geometry">
            <mxPoint as="offset" />
          </mxGeometry>
        </mxCell>
        <mxCell id="dUGXrfB6HH9C9mqlkpc8-1" value="Wasser" style="rounded=0;whiteSpace=wrap;html=1;" vertex="1" parent="1">
          <mxGeometry x="354" y="80" width="120" height="60" as="geometry" />
        </mxCell>
        <mxCell id="dUGXrfB6HH9C9mqlkpc8-2" value="Eis&lt;span style=&quot;color: rgba(0, 0, 0, 0); font-family: monospace; font-size: 0px; text-align: start; text-wrap: nowrap;&quot;&gt;%3CmxGraphModel%3E%3Croot%3E%3CmxCell%20id%3D%220%22%2F%3E%3CmxCell%20id%3D%221%22%20parent%3D%220%22%2F%3E%3CmxCell%20id%3D%222%22%20value%3D%22Wasser%22%20style%3D%22rounded%3D0%3BwhiteSpace%3Dwrap%3Bhtml%3D1%3B%22%20vertex%3D%221%22%20parent%3D%221%22%3E%3CmxGeometry%20x%3D%22354%22%20y%3D%2280%22%20width%3D%22120%22%20height%3D%2260%22%20as%3D%22geometry%22%2F%3E%3C%2FmxCell%3E%3C%2Froot%3E%3C%2FmxGraphModel%3E&lt;/span&gt;" style="rounded=0;whiteSpace=wrap;html=1;" vertex="1" parent="1">
          <mxGeometry x="140" y="80" width="120" height="60" as="geometry" />
        </mxCell>
        <mxCell id="dUGXrfB6HH9C9mqlkpc8-3" value="Dampf" style="rounded=0;whiteSpace=wrap;html=1;" vertex="1" parent="1">
          <mxGeometry x="560" y="80" width="120" height="60" as="geometry" />
        </mxCell>
        <mxCell id="dUGXrfB6HH9C9mqlkpc8-16" style="edgeStyle=orthogonalEdgeStyle;rounded=0;orthogonalLoop=1;jettySize=auto;html=1;" edge="1" parent="1" source="dUGXrfB6HH9C9mqlkpc8-8" target="dUGXrfB6HH9C9mqlkpc8-15">
          <mxGeometry relative="1" as="geometry" />
        </mxCell>
        <mxCell id="dUGXrfB6HH9C9mqlkpc8-17" value="Ab -2°C" style="edgeLabel;html=1;align=center;verticalAlign=middle;resizable=0;points=[];" vertex="1" connectable="0" parent="dUGXrfB6HH9C9mqlkpc8-16">
          <mxGeometry x="-0.0106" y="-1" relative="1" as="geometry">
            <mxPoint as="offset" />
          </mxGeometry>
        </mxCell>
        <mxCell id="dUGXrfB6HH9C9mqlkpc8-18" style="edgeStyle=orthogonalEdgeStyle;rounded=0;orthogonalLoop=1;jettySize=auto;html=1;" edge="1" parent="1" source="dUGXrfB6HH9C9mqlkpc8-8" target="dUGXrfB6HH9C9mqlkpc8-22">
          <mxGeometry relative="1" as="geometry">
            <mxPoint x="520" y="300" as="sourcePoint" />
            <mxPoint x="520" y="400" as="targetPoint" />
          </mxGeometry>
        </mxCell>
        <mxCell id="dUGXrfB6HH9C9mqlkpc8-19" value="Ab 100°C" style="edgeLabel;html=1;align=center;verticalAlign=middle;resizable=0;points=[];" vertex="1" connectable="0" parent="dUGXrfB6HH9C9mqlkpc8-18">
          <mxGeometry x="0.0879" y="1" relative="1" as="geometry">
            <mxPoint as="offset" />
          </mxGeometry>
        </mxCell>
        <mxCell id="dUGXrfB6HH9C9mqlkpc8-8" value="Schlam" style="rounded=0;whiteSpace=wrap;html=1;" vertex="1" parent="1">
          <mxGeometry x="354" y="220" width="120" height="60" as="geometry" />
        </mxCell>
        <mxCell id="dUGXrfB6HH9C9mqlkpc8-12" style="edgeStyle=orthogonalEdgeStyle;rounded=0;orthogonalLoop=1;jettySize=auto;html=1;" edge="1" parent="1">
          <mxGeometry relative="1" as="geometry">
            <mxPoint x="413.69" y="380" as="sourcePoint" />
            <mxPoint x="413.69" y="280" as="targetPoint" />
            <Array as="points">
              <mxPoint x="413.69" y="330" />
              <mxPoint x="413.69" y="330" />
            </Array>
          </mxGeometry>
        </mxCell>
        <mxCell id="dUGXrfB6HH9C9mqlkpc8-13" value="Bei Berürung mit mit Wasser" style="edgeLabel;html=1;align=center;verticalAlign=middle;resizable=0;points=[];" vertex="1" connectable="0" parent="dUGXrfB6HH9C9mqlkpc8-12">
          <mxGeometry x="0.1" y="4" relative="1" as="geometry">
            <mxPoint as="offset" />
          </mxGeometry>
        </mxCell>
        <mxCell id="dUGXrfB6HH9C9mqlkpc8-11" value="Erde" style="rounded=0;whiteSpace=wrap;html=1;" vertex="1" parent="1">
          <mxGeometry x="354" y="380" width="120" height="60" as="geometry" />
        </mxCell>
        <mxCell id="dUGXrfB6HH9C9mqlkpc8-15" value="Schlam Eis" style="rounded=0;whiteSpace=wrap;html=1;" vertex="1" parent="1">
          <mxGeometry x="140" y="220" width="120" height="60" as="geometry" />
        </mxCell>
        <mxCell id="dUGXrfB6HH9C9mqlkpc8-23" style="edgeStyle=orthogonalEdgeStyle;rounded=0;orthogonalLoop=1;jettySize=auto;html=1;" edge="1" parent="1" source="dUGXrfB6HH9C9mqlkpc8-22" target="dUGXrfB6HH9C9mqlkpc8-3">
          <mxGeometry relative="1" as="geometry">
            <Array as="points">
              <mxPoint x="640" y="160" />
              <mxPoint x="640" y="160" />
            </Array>
          </mxGeometry>
        </mxCell>
        <mxCell id="dUGXrfB6HH9C9mqlkpc8-24" style="edgeStyle=orthogonalEdgeStyle;rounded=0;orthogonalLoop=1;jettySize=auto;html=1;" edge="1" parent="1" source="dUGXrfB6HH9C9mqlkpc8-22" target="dUGXrfB6HH9C9mqlkpc8-11">
          <mxGeometry relative="1" as="geometry">
            <Array as="points">
              <mxPoint x="640" y="410" />
            </Array>
          </mxGeometry>
        </mxCell>
        <mxCell id="dUGXrfB6HH9C9mqlkpc8-22" value="1/2" style="rhombus;whiteSpace=wrap;html=1;" vertex="1" parent="1">
          <mxGeometry x="600" y="210" width="80" height="80" as="geometry" />
        </mxCell>
      </root>
    </mxGraphModel>
  </diagram>
</mxfile>
